<svg width="99" height="26" viewBox="0 0 99 26" fill="none" xmlns="http://www.w3.org/2000/svg">
<circle cx="10.6398" cy="13" r="10.6398" fill="url(#paint0_linear_372_11)"/>
<mask id="mask0_372_11" style="mask-type:alpha" maskUnits="userSpaceOnUse" x="0" y="2" width="22" height="22">
<circle cx="10.6398" cy="13" r="10.6398" fill="#D9D9D9"/>
</mask>
<g mask="url(#mask0_372_11)">
<ellipse cx="3.02995" cy="20.0021" rx="10.6398" ry="7.58955" transform="rotate(-35.51 3.02995 20.0021)" fill="url(#paint1_linear_372_11)"/>
<ellipse cx="14.3865" cy="22.1987" rx="10.6398" ry="7.58955" fill="url(#paint2_linear_372_11)"/>
</g>
<path d="M44.5836 16.292H37.8636L35.7756 21.308L33.2316 20.252L40.2396 3.356H42.2076L49.2156 20.252L46.6716 21.308L44.5836 16.292ZM39.0156 13.532H43.4316L41.2236 8.18L39.0156 13.532ZM56.0582 21.356C55.2182 21.356 54.4502 21.212 53.7302 20.9C53.0102 20.588 52.3622 20.156 51.8342 19.628C51.3062 19.1 50.8742 18.476 50.5622 17.756C50.2502 17.036 50.1062 16.244 50.1062 15.428C50.1062 14.612 50.2502 13.82 50.5622 13.1C50.8742 12.38 51.3062 11.732 51.8342 11.204C52.3622 10.676 53.0102 10.244 53.7302 9.932C54.4502 9.62 55.2182 9.476 56.0582 9.476C56.8742 9.476 57.6422 9.62 58.3622 9.932C59.0822 10.244 59.7062 10.676 60.2342 11.204C60.7622 11.732 61.1942 12.38 61.5062 13.1C61.8182 13.82 61.9862 14.612 61.9862 15.428C61.9862 16.244 61.8182 17.012 61.5062 17.732C61.1942 18.452 60.7622 19.1 60.2342 19.628C59.7062 20.156 59.0822 20.588 58.3622 20.9C57.6422 21.212 56.8742 21.356 56.0582 21.356ZM56.0582 12.236C55.6022 12.236 55.1942 12.308 54.8102 12.476C54.4262 12.644 54.0902 12.884 53.8022 13.172C53.5142 13.46 53.2742 13.796 53.1062 14.18C52.9382 14.564 52.8662 14.996 52.8662 15.428C52.8662 15.86 52.9382 16.268 53.1062 16.652C53.2742 17.036 53.5142 17.396 53.8022 17.684C54.0902 17.972 54.4262 18.188 54.8102 18.356C55.1942 18.524 55.6022 18.62 56.0582 18.62C56.4902 18.62 56.8982 18.524 57.2822 18.356C57.6662 18.188 58.0022 17.972 58.2902 17.684C58.5782 17.396 58.7942 17.036 58.9622 16.652C59.1302 16.268 59.2262 15.86 59.2262 15.428C59.2262 14.996 59.1302 14.564 58.9622 14.18C58.7942 13.796 58.5782 13.46 58.2902 13.172C58.0022 12.884 57.6662 12.644 57.2822 12.476C56.8982 12.308 56.4902 12.236 56.0582 12.236ZM64.68 3.356H67.416V21.164H64.68V3.356ZM76.0744 9.452C76.6504 9.452 77.2024 9.548 77.7544 9.692C78.2824 9.86 78.7864 10.1 79.2664 10.412V3.38H82.0264V21.188H79.2664V20.444C78.7864 20.756 78.2824 20.996 77.7544 21.14C77.2024 21.284 76.6504 21.356 76.0744 21.356C75.2584 21.356 74.4904 21.212 73.7704 20.9C73.0504 20.588 72.4024 20.156 71.8744 19.604C71.3224 19.076 70.8904 18.428 70.5784 17.708C70.2664 16.988 70.1224 16.22 70.1224 15.404C70.1224 14.588 70.2664 13.82 70.5784 13.1C70.8904 12.38 71.3224 11.756 71.8744 11.204C72.4024 10.676 73.0504 10.244 73.7704 9.932C74.4904 9.62 75.2584 9.452 76.0744 9.452ZM72.8824 15.404C72.8824 15.836 72.9544 16.268 73.1224 16.652C73.2904 17.036 73.5304 17.372 73.8184 17.66C74.1064 17.948 74.4424 18.188 74.8264 18.356C75.2104 18.524 75.6424 18.596 76.0744 18.596C76.5064 18.596 76.9144 18.524 77.2984 18.356C77.6824 18.188 78.0424 17.948 78.3304 17.66C78.6184 17.372 78.8344 17.036 79.0024 16.652C79.1704 16.268 79.2664 15.836 79.2664 15.404C79.2664 14.972 79.1704 14.564 79.0024 14.18C78.8344 13.796 78.6184 13.436 78.3304 13.148C78.0424 12.86 77.6824 12.644 77.2984 12.476C76.9144 12.308 76.5064 12.212 76.0744 12.212C75.6424 12.212 75.2104 12.308 74.8264 12.476C74.4424 12.644 74.1064 12.86 73.8184 13.148C73.5304 13.436 73.2904 13.796 73.1224 14.18C72.9544 14.564 72.8824 14.972 72.8824 15.404ZM90.7239 9.452C91.2999 9.452 91.8519 9.548 92.4039 9.692C92.9319 9.86 93.4359 10.1 93.9159 10.412V9.668H96.6759V21.188H93.9159V20.444C93.4359 20.756 92.9319 20.996 92.4039 21.14C91.8519 21.284 91.2999 21.356 90.7239 21.356C89.9079 21.356 89.1399 21.212 88.4199 20.9C87.6999 20.588 87.0519 20.156 86.5239 19.604C85.9719 19.076 85.5399 18.428 85.2279 17.708C84.9159 16.988 84.7719 16.22 84.7719 15.404C84.7719 14.588 84.9159 13.82 85.2279 13.1C85.5399 12.38 85.9719 11.756 86.5239 11.204C87.0519 10.676 87.6999 10.244 88.4199 9.932C89.1399 9.62 89.9079 9.452 90.7239 9.452ZM87.5319 15.404C87.5319 15.836 87.6039 16.268 87.7719 16.652C87.9399 17.036 88.1799 17.372 88.4679 17.66C88.7559 17.948 89.0919 18.188 89.4759 18.356C89.8599 18.524 90.2919 18.596 90.7239 18.596C91.1559 18.596 91.5639 18.524 91.9479 18.356C92.3319 18.188 92.6919 17.948 92.9799 17.66C93.2679 17.372 93.4839 17.036 93.6519 16.652C93.8199 16.268 93.9159 15.836 93.9159 15.404C93.9159 14.972 93.8199 14.564 93.6519 14.18C93.4839 13.796 93.2679 13.436 92.9799 13.148C92.6919 12.86 92.3319 12.644 91.9479 12.476C91.5639 12.308 91.1559 12.212 90.7239 12.212C90.2919 12.212 89.8599 12.308 89.4759 12.476C89.0919 12.644 88.7559 12.86 88.4679 13.148C88.1799 13.436 87.9399 13.796 87.7719 14.18C87.6039 14.564 87.5319 14.972 87.5319 15.404Z" fill="#0E76C4"/>
<defs>
<linearGradient id="paint0_linear_372_11" x1="19.142" y1="19.5088" x2="3.36246" y2="5.50651" gradientUnits="userSpaceOnUse">
<stop stop-color="#206CA5"/>
<stop offset="1" stop-color="#0E76C4"/>
</linearGradient>
<linearGradient id="paint1_linear_372_11" x1="5.02962" y1="14.498" x2="2.21991" y2="25.2137" gradientUnits="userSpaceOnUse">
<stop stop-color="#58AEE5"/>
<stop offset="1" stop-color="white" stop-opacity="0"/>
</linearGradient>
<linearGradient id="paint2_linear_372_11" x1="6.72493" y1="17.0419" x2="17.1089" y2="31.117" gradientUnits="userSpaceOnUse">
<stop stop-color="#A7D7F0"/>
<stop offset="1" stop-color="white" stop-opacity="0"/>
</linearGradient>
</defs>
</svg>
